<svg xmlns="http://www.w3.org/2000/svg" viewBox="0 0 90 90"><defs><style>.cls-2{fill:#fcd157}.cls-3{fill:#f2ac23}</style></defs><path d="m89.88 13.1-.17-2.8H69.88V4.8H20v5.51H.17L0 13.09v.95a35 35 0 0 0 3.06 14.41 21.08 21.08 0 0 0 6.81 8.3 21.31 21.31 0 0 0 12.18 3.64A25 25 0 0 0 38 54.46v8.37a13.92 13.92 0 0 1-13.91 13.73h-.86v8.24h43.29v-8.24h-.87a13.91 13.91 0 0 1-13.91-13.91V54.5a25 25 0 0 0 16.1-14.11A21.34 21.34 0 0 0 80 36.75c4.84-3.41 7.24-8.43 8.49-12.8a37.16 37.16 0 0 0 1.4-9.95c0-.52-.01-.85-.01-.9Zm-76 18c-3-2.1-4.82-5.54-5.81-9a31.79 31.79 0 0 1-1-4.84H20v13.3a23.94 23.94 0 0 0 .17 2.84 13.39 13.39 0 0 1-6.33-2.31Zm66.73-5.61a13.79 13.79 0 0 1-4.61 5.6 13.31 13.31 0 0 1-6.33 2.26 26.26 26.26 0 0 0 .17-2.84v-13.3h13a27.06 27.06 0 0 1-2.27 8.27Z" style="fill:#fed859"/><path class="cls-2" d="m89.88 13.1-.17-2.8H69.88V4.8H20v5.51H.17L0 13.09v.95a35 35 0 0 0 3.06 14.41 21.08 21.08 0 0 0 6.81 8.3 21.31 21.31 0 0 0 12.18 3.64A25 25 0 0 0 38 54.46v8.37a13.92 13.92 0 0 1-13.91 13.73h-.86v8.24h43.29v-8.24h-.87a13.91 13.91 0 0 1-13.91-13.91V54.5a25 25 0 0 0 16.1-14.11A21.34 21.34 0 0 0 80 36.75c4.84-3.41 7.24-8.43 8.49-12.8a37.16 37.16 0 0 0 1.4-9.95c0-.52-.01-.85-.01-.9Zm-76 18c-3-2.1-4.82-5.54-5.81-9a31.79 31.79 0 0 1-1-4.84H20v13.3a23.94 23.94 0 0 0 .17 2.84 13.39 13.39 0 0 1-6.33-2.31Zm66.73-5.61a13.79 13.79 0 0 1-4.61 5.6 13.31 13.31 0 0 1-6.33 2.26 26.26 26.26 0 0 0 .17-2.84v-13.3h13a27.06 27.06 0 0 1-2.27 8.27Z"/><path class="cls-3" d="M38 54.46v8.37a13.92 13.92 0 0 1-13.91 13.73h-.86v8.24h43.29v-8.24h-.87a13.91 13.91 0 0 1-13.91-13.91V54.5Z"/><path class="cls-2" d="M38 56.83v6a13.92 13.92 0 0 1-13.91 13.73h-.86v8.24h43.29v-8.24h-.87C46 76.56 38 56.83 38 56.83Z"/><path class="cls-3" d="M67.84 40.39A21.34 21.34 0 0 0 80 36.75c4.84-3.41 7.24-8.43 8.49-12.8a37.16 37.16 0 0 0 1.4-9.95v-.94l-.17-2.8H69.88v6.91h13a27.06 27.06 0 0 1-2.29 8.27A13.79 13.79 0 0 1 76 31.09a13.31 13.31 0 0 1-6.33 2.26ZM20.19 33.36a13.27 13.27 0 0 1-6.34-2.26 13.79 13.79 0 0 1-4.53-5.61A26.71 26.71 0 0 1 7 17.22h13v-6.91H.17L0 13.12v.93A37.16 37.16 0 0 0 1.38 24C2.62 28.33 5 33.35 9.87 36.77a21.31 21.31 0 0 0 12.18 3.63Z"/><path d="M22.06 40.39C44.91 40.39 45 5.09 45 4.8H20v25.71a14.87 14.87 0 0 0 .17 2.84c.83 5.01 1.89 7.04 1.89 7.04Z" style="fill:#fbe28b"/></svg>